<svg id="visual" viewBox="0 0 900 600" width="900" height="600" xmlns="http://www.w3.org/2000/svg" xmlns:xlink="http://www.w3.org/1999/xlink" version="1.1"><rect x="0" y="0" width="900" height="600" fill="#c9003c"></rect><path d="M394 0L441 0L441 67L464 67L464 133L387 133L387 200L438 200L438 267L336 267L336 333L462 333L462 400L469 400L469 467L433 467L433 533L403 533L403 600L0 600L0 533L0 533L0 467L0 467L0 400L0 400L0 333L0 333L0 267L0 267L0 200L0 200L0 133L0 133L0 67L0 67L0 0L0 0Z" fill="#ff2063"></path><path d="M290 0L306 0L306 67L287 67L287 133L327 133L327 200L304 200L304 267L276 267L276 333L294 333L294 400L275 400L275 467L339 467L339 533L324 533L324 600L0 600L0 533L0 533L0 467L0 467L0 400L0 400L0 333L0 333L0 267L0 267L0 200L0 200L0 133L0 133L0 67L0 67L0 0L0 0Z" fill="#fe1a5d"></path><path d="M227 0L260 0L260 67L202 67L202 133L279 133L279 200L272 200L272 267L201 267L201 333L206 333L206 400L218 400L218 467L240 467L240 533L284 533L284 600L0 600L0 533L0 533L0 467L0 467L0 400L0 400L0 333L0 333L0 267L0 267L0 200L0 200L0 133L0 133L0 67L0 67L0 0L0 0Z" fill="#fc1457"></path><path d="M154 0L190 0L190 67L217 67L217 133L202 133L202 200L202 200L202 267L204 267L204 333L177 333L177 400L166 400L166 467L133 467L133 533L215 533L215 600L0 600L0 533L0 533L0 467L0 467L0 400L0 400L0 333L0 333L0 267L0 267L0 200L0 200L0 133L0 133L0 67L0 67L0 0L0 0Z" fill="#fa0c51"></path><path d="M121 0L106 0L106 67L80 67L80 133L73 133L73 200L87 200L87 267L122 267L122 333L93 333L93 400L99 400L99 467L56 467L56 533L128 533L128 600L0 600L0 533L0 533L0 467L0 467L0 400L0 400L0 333L0 333L0 267L0 267L0 200L0 200L0 133L0 133L0 67L0 67L0 0L0 0Z" fill="#f8034b"></path></svg>